# xmcd
#
# Track frame offsets:
#	150
#	23926
#	51243
#	74682
#	101349
#	134229
#	162359
#	194766
#	231653
#	268389
#	308356
#
# Disc length: 4595 seconds
# Revision: 0
# Processed by: cddbd v1.5.2PL0 Copyright (c) Steve Scherf et al.
# Submitted via: dBpowerAMP V12.0
#
DISCID=ae11f10b
DTITLE=Back Water Roll - Live At The Platform Tavern
DYEAR=2014
DGENRE=Blues
TTITLE0=So Mean To You
TTITLE1=Walking The Dog
TTITLE2=Wait On Time
TTITLE3=Big Legged Woman
TTITLE4=Hoochie Coochie Man
TTITLE5=Mr Highway Man
TTITLE6=Who Do You Love
TTITLE7=I Don't Need No Doctor
TTITLE8=Devil Woman
TTITLE9=Big Boss Man
TTITLE10=Fistful Of Dirt
EXTD=
EXTT0=
EXTT1=
EXTT2=
EXTT3=
EXTT4=
EXTT5=
EXTT6=
EXTT7=
EXTT8=
EXTT9=
EXTT10=
PLAYORDER=
